<svg width="96" height="33" viewBox="0 0 96 33" fill="none" xmlns="http://www.w3.org/2000/svg">
<path d="M95.9461 12.7904C96.0071 13.535 95.9827 14.3222 95.8728 15.1522C95.7264 16.1409 95.4945 17.0319 95.1771 17.8252C94.8476 18.6186 94.4387 19.296 93.9505 19.8575C93.4622 20.4189 92.9008 20.8461 92.2661 21.1391C91.6192 21.4442 90.9174 21.5968 90.1606 21.5968C89.7945 21.5968 89.4527 21.5602 89.1353 21.4869C88.818 21.4137 88.519 21.2977 88.2382 21.1391C87.9697 20.9804 87.7073 20.779 87.451 20.5349C87.1947 20.303 86.9444 20.0161 86.7003 19.6744L86.5539 20.5532C86.505 20.8583 86.3647 21.1024 86.1328 21.2855C85.9131 21.4808 85.6568 21.5785 85.3638 21.5785H83.6978L85.9131 6.27263C86.0107 5.69896 86.267 5.22905 86.682 4.86288C87.1092 4.48451 87.6096 4.29532 88.1833 4.29532H89.3367L88.4396 10.5934C88.757 10.3127 89.0743 10.0747 89.3917 9.87939C89.6968 9.67189 90.002 9.50712 90.3071 9.38506C90.6122 9.2508 90.9174 9.15926 91.2225 9.11043C91.5277 9.0494 91.845 9.01889 92.1745 9.01889C93.0045 9.01889 93.6819 9.18367 94.2068 9.51322C94.7438 9.84277 95.1527 10.2822 95.4334 10.8314C95.7142 11.3929 95.8851 12.0459 95.9461 12.7904ZM92.5773 15.3719C92.6384 14.8959 92.6689 14.4382 92.6689 13.9988C92.6567 13.5594 92.5895 13.1688 92.4675 12.827C92.3332 12.4853 92.144 12.2107 91.8999 12.0032C91.6436 11.8079 91.3018 11.7102 90.8747 11.7102C90.6672 11.7102 90.4597 11.7346 90.2522 11.7835C90.0447 11.8445 89.825 11.9482 89.5931 12.0947C89.3612 12.229 89.117 12.4121 88.8607 12.644C88.6044 12.8637 88.3298 13.1444 88.0368 13.4861L87.5059 17.1844C87.8721 17.7459 88.2382 18.1731 88.6044 18.466C88.9584 18.7712 89.3551 18.9237 89.7945 18.9237C90.2094 18.9237 90.5756 18.82 90.893 18.6125C91.1981 18.3928 91.4666 18.1182 91.6985 17.7886C91.9426 17.4591 92.1318 17.0807 92.2661 16.6535C92.4126 16.2263 92.5163 15.7991 92.5773 15.3719Z" fill="#032858"/>
<path d="M79.9067 11.1427C80.0044 10.508 80.2851 9.98923 80.7489 9.58644C81.2127 9.17145 81.762 8.96396 82.3967 8.96396H83.3853L81.7376 21.4686H80.0898C79.7847 21.4686 79.5284 21.3527 79.3209 21.1208C79.1256 20.8888 79.0462 20.6081 79.0828 20.2786L79.1744 19.5096C78.4421 20.1931 77.728 20.6997 77.0323 21.0292C76.3366 21.371 75.647 21.5418 74.9635 21.5418C74.1823 21.5418 73.5415 21.4137 73.0411 21.1574C72.5528 20.901 72.1745 20.5532 71.9059 20.1138C71.6374 19.6744 71.4788 19.1679 71.4299 18.5942C71.3689 18.0083 71.3994 17.2821 71.5215 16.4155L72.1989 11.5088C72.3209 10.7643 72.6566 10.154 73.2058 9.67799C73.7551 9.20197 74.3959 8.96396 75.1282 8.96396H75.7507L74.7804 15.8845C74.6949 16.4826 74.6705 16.9342 74.7071 17.2394C74.7438 17.5567 74.8231 17.8252 74.9451 18.0449C75.0672 18.2768 75.2442 18.4538 75.4761 18.5759C75.6958 18.6979 75.9643 18.759 76.2817 18.759C76.6966 18.759 77.1299 18.6125 77.5816 18.3196C78.0332 18.0144 78.5275 17.5811 79.0645 17.0197L79.9067 11.1427Z" fill="#032858"/>
<path d="M63.6208 13.7058L62.5223 21.5419H59.3916L61.4605 6.40079C61.8388 4.99714 62.5773 4.29532 63.6758 4.29532H64.8841L64.0053 10.868C64.6278 10.331 65.232 9.93431 65.8179 9.67799C66.4159 9.42168 67.014 9.29352 67.6121 9.29352C68.3688 9.29352 68.9913 9.41557 69.4795 9.65969C69.9556 9.9038 70.3217 10.2395 70.578 10.6666C70.8344 11.1061 70.993 11.6126 71.0541 12.1862C71.1151 12.7599 71.0907 13.4556 70.9808 14.2734L69.9739 21.4869H69.1866C68.5641 21.4869 68.0576 21.255 67.667 20.7912C67.2764 20.3396 67.1117 19.8026 67.1727 19.1801L67.7952 14.7494C67.8684 14.2124 67.8867 13.7913 67.8501 13.4861C67.8135 13.1688 67.7402 12.9064 67.6304 12.6989C67.5083 12.4792 67.3375 12.3083 67.1178 12.1862C66.8981 12.0642 66.6295 12.0032 66.3122 12.0032C65.9216 12.0032 65.5005 12.1496 65.0489 12.4426C64.6095 12.7233 64.1335 13.1444 63.6208 13.7058Z" fill="#032858"/>
<path d="M56.6441 8.94566H59.0792L58.8411 10.2822C58.7801 10.6605 58.6092 10.9657 58.3285 11.1976C58.0478 11.4295 57.7182 11.5516 57.3399 11.5638H56.278L55.509 16.9281C55.387 17.5872 55.3992 18.0816 55.5456 18.4111C55.6799 18.6186 55.8569 18.7468 56.0766 18.7956C56.2963 18.8444 56.5221 18.8505 56.754 18.8139C57.0469 18.7895 57.3093 18.8566 57.5412 19.0153C57.7732 19.1618 57.9318 19.3754 58.0173 19.6561L58.3651 20.7729C58.2187 20.8461 58.0295 20.9255 57.7976 21.0109C57.5657 21.0963 57.346 21.1696 57.1385 21.2306C56.9432 21.3038 56.8211 21.3466 56.7723 21.3588C56.5648 21.3954 56.339 21.432 56.0949 21.4686C55.863 21.493 55.625 21.5052 55.3808 21.5052C54.7462 21.5052 54.203 21.4198 53.7514 21.2489C53.312 21.0902 52.958 20.84 52.6895 20.4983C52.4332 20.1687 52.2684 19.7476 52.1952 19.235C52.122 18.7224 52.1342 18.1182 52.2318 17.4225L53.0557 11.5638H51.0601L51.3164 9.95262C51.3652 9.65969 51.4934 9.42168 51.7009 9.23859C51.9206 9.0433 52.1769 8.94566 52.4698 8.94566H53.4218L53.6049 7.59083C53.6538 7.23687 53.8002 6.95004 54.0443 6.73034C54.3007 6.51064 54.5997 6.40079 54.9414 6.40079H56.9554L56.6441 8.94566Z" fill="#032858"/>
<path d="M45.6883 8.98227C47.2384 8.98227 48.4834 9.50101 49.4232 10.5385C50.363 11.5638 50.8024 12.8942 50.7414 14.5297C50.656 16.5803 50.0091 18.2463 48.8007 19.5279C47.5924 20.8095 46.085 21.4503 44.2785 21.4503C42.7162 21.4503 41.4468 20.9194 40.4704 19.8575C39.4939 18.7956 39.0423 17.4469 39.1156 15.8113C39.1888 13.8462 39.8479 12.2168 41.0929 10.923C42.3501 9.62917 43.8819 8.98227 45.6883 8.98227ZM44.4433 18.759C45.3832 18.759 46.2009 18.3745 46.8967 17.6055C47.5802 16.8244 47.9463 15.8723 47.9952 14.7494C48.0318 13.8584 47.806 13.1261 47.3177 12.5524C46.8173 11.9665 46.1704 11.6736 45.3771 11.6736C44.4616 11.6736 43.6561 12.0642 42.9603 12.8453C42.2646 13.6143 41.8985 14.5419 41.8618 15.6282C41.8252 16.5559 42.0449 17.3126 42.5209 17.8985C43.0092 18.4721 43.65 18.759 44.4433 18.759Z" fill="#032858"/>
<path d="M38.7222 9.16535L30.6115 25.5331C29.7938 26.9245 28.677 27.6202 27.2611 27.6202H26.1626C26.1748 27.5714 26.3518 27.2297 26.6935 26.595C27.0353 25.9725 27.432 25.2524 27.8836 24.4346C28.3352 23.6168 28.738 22.8845 29.0919 22.2376C29.4459 21.6029 29.6229 21.2855 29.6229 21.2855L27.3343 9.51321C27.3099 9.40336 27.2916 9.29961 27.2794 9.20197H28.7807C29.2811 9.20197 29.7205 9.35454 30.0989 9.65968C30.4773 9.96482 30.7214 10.3676 30.8312 10.868L32.0396 16.5803H32.0762L34.914 10.4652C35.4633 9.46439 36.2383 8.96396 37.2392 8.96396H38.7954C38.7954 8.97616 38.7954 8.98837 38.7954 9.00057C38.771 9.0494 38.7466 9.10432 38.7222 9.16535Z" fill="#032858"/>
<path d="M18.2561 13.4312L17.3224 20.1504C17.2491 20.5532 17.066 20.8828 16.7731 21.1391C16.4802 21.3954 16.1323 21.5236 15.7295 21.5236H13.9536L15.4732 10.6117C15.5464 10.1357 15.7539 9.75125 16.0957 9.45831C16.4497 9.15317 16.8585 9.0006 17.3224 9.0006H18.4026L18.1462 10.9596C18.8542 10.2883 19.556 9.78176 20.2517 9.44001C20.9352 9.11045 21.6248 8.94568 22.3206 8.94568C23.0895 8.94568 23.7181 9.06773 24.2063 9.31185C24.6946 9.56816 25.0668 9.90992 25.3231 10.3371C25.5917 10.7765 25.7564 11.2831 25.8175 11.8567C25.8785 12.4426 25.8541 13.1383 25.7442 13.9439L24.8837 21.5236H21.7164L22.5036 14.4748C22.5769 13.9378 22.5952 13.5106 22.5586 13.1932C22.522 12.8881 22.4426 12.6257 22.3206 12.406C22.2107 12.1741 22.0398 11.9971 21.8079 11.875C21.5882 11.753 21.3197 11.6919 21.0024 11.6919C20.5996 11.6919 20.1724 11.8384 19.7208 12.1313C19.2692 12.4365 18.7809 12.8698 18.2561 13.4312Z" fill="#032858"/>
<path d="M11.5904 5.70508H13.641L13.403 7.40776C13.3542 7.65187 13.2443 7.85327 13.0734 8.01194C12.9025 8.15841 12.7012 8.23164 12.4692 8.23164H10.2539L10.4736 6.65712C10.5102 6.37639 10.6323 6.15058 10.8398 5.97971C11.0595 5.79662 11.3097 5.70508 11.5904 5.70508ZM9.83283 10.5568C9.89386 10.2151 10.0464 9.93432 10.2905 9.71462C10.5469 9.49492 10.8459 9.38507 11.1877 9.38507H13.0368L11.7186 18.9604C11.6088 19.7293 11.2731 20.3518 10.7116 20.8278C10.1502 21.3161 9.49718 21.5602 8.75264 21.5602H8.33154L9.83283 10.5568Z" fill="#032858"/>
<path d="M5.58407 8.94566H8.01909L7.78108 10.2822C7.72005 10.6605 7.54917 10.9657 7.26844 11.1976C6.98771 11.4295 6.65816 11.5516 6.27979 11.5638H5.2179L4.44895 16.9281C4.32689 17.5872 4.3391 18.0816 4.48556 18.4111C4.61983 18.6186 4.79681 18.7468 5.01651 18.7956C5.23621 18.8444 5.46201 18.8505 5.69392 18.8139C5.98685 18.7895 6.24927 18.8566 6.48118 19.0153C6.71309 19.1618 6.87176 19.3754 6.9572 19.6561L7.30506 20.7729C7.15859 20.8461 6.96941 20.9255 6.7375 21.0109C6.50559 21.0963 6.28589 21.1696 6.0784 21.2306C5.88311 21.3038 5.76105 21.3466 5.71223 21.3588C5.50473 21.3954 5.27893 21.432 5.03482 21.4686C4.80291 21.493 4.5649 21.5052 4.32079 21.5052C3.6861 21.5052 3.14295 21.4198 2.69134 21.2489C2.25194 21.0902 1.89797 20.84 1.62945 20.4983C1.37313 20.1687 1.20836 19.7476 1.13512 19.235C1.06189 18.7224 1.07409 18.1182 1.17174 17.4225L1.99562 11.5638H0L0.256318 9.95262C0.30514 9.65969 0.433299 9.42168 0.640795 9.23859C0.860496 9.0433 1.11681 8.94566 1.40975 8.94566H2.36179L2.54487 7.59083C2.59369 7.23687 2.74016 6.95004 2.98427 6.73034C3.24059 6.51064 3.53963 6.40079 3.88139 6.40079H5.89531L5.58407 8.94566Z" fill="#032858"/>
<path d="M38.4977 3.00514C38.786 2.4925 39.1376 2.11811 39.5525 1.88197C39.9811 1.6514 40.3869 1.61403 40.7699 1.76986L42.8422 2.61301L29.6529 27.5059C29.035 28.6719 28.2583 29.5033 27.3228 30C26.3794 30.5161 25.4906 30.6044 24.6562 30.265L24.1843 30.073L38.4977 3.00514Z" fill="#FEC84B"/>
</svg>
