<svg width="800" height="800" xmlns="http://www.w3.org/2000/svg" preserveAspectRatio="xMidYMid meet" version="1.0">
 <defs>
  <linearGradient y2="100%" x2="100%" y1="0%" x1="0%" id="logoGradient">
   <stop stop-color="#ff5c5c" style="stop-color:#ff5c5c;stop-opacity:1" offset="0%"/>
   <stop stop-color="#ff8080" style="stop-color:#ff8080;stop-opacity:1" offset="100%"/>
  </linearGradient>
 </defs>
 <g>
  <title>background</title>
  <rect fill="none" id="canvas_background" height="1187" width="2302" y="-1" x="-1"/>
 </g>
 <g>
  <title>Layer 1</title>
  <g id="svg_1" fill="url(#logoGradient)" transform="translate(-118.99202728271484,991.8367919921875) scale(0.14054100215435028,-0.14054100215435028) ">
   <path stroke="null" id="svg_2" d="m1641.448742,6856.640955c-96.159897,-22.837074 -172.36208,-89.5916 -215.906185,-184.453293c-34.472416,-75.538015 -47.17278,-165.129615 -81.645196,-590.250538c-76.202183,-938.076748 -99.788573,-1138.340324 -152.404366,-1268.335978c-121.560625,-309.178853 -161.476054,-767.677039 -92.531222,-1085.639383c59.873144,-282.828383 199.577145,-590.250538 375.567901,-827.404772c54.430131,-73.781317 105.231586,-142.29254 110.674599,-151.076031c7.257351,-12.296886 -29.029403,-42.160753 -83.459534,-72.024619c-332.023797,-180.939897 -429.998032,-609.574217 -194.134132,-844.971753c154.218703,-152.832729 373.753563,-217.830556 743.878451,-217.830556c382.825252,0 620.503489,72.024619 769.279179,237.154234l76.202183,84.321505l137.889664,-33.377263c208.648834,-52.700941 391.89694,-72.024619 654.975905,-72.024619c259.450289,0 388.268265,15.810282 633.203852,72.024619l159.661716,36.890659l78.016521,-77.294713c177.805093,-177.426501 391.89694,-245.937724 783.79388,-247.694422c444.512733,-1.756698 713.034711,98.37509 830.96666,310.935551c32.658078,57.971035 39.915429,101.888486 39.915429,230.127442c0,138.779144 -7.257351,170.399709 -48.987118,249.45112c-58.058806,107.15858 -146.961353,193.236783 -275.779328,272.288195c-50.801455,29.863867 -94.34556,57.971035 -97.974235,59.727733c-3.628675,1.756698 43.544104,70.267921 103.417248,151.076031c424.555019,574.440256 527.972267,1231.445319 301.180056,1909.530759c-36.286754,105.401882 -58.058806,203.776972 -52.615793,219.587254c14.514701,36.890659 -81.645196,1507.24691 -105.231586,1596.83851c-18.143377,73.781317 -105.231586,177.426501 -179.619431,216.073858c-127.003638,63.241129 -284.851017,10.540188 -1400.668694,-460.254884l-141.51834,-59.727733l-175.990756,28.107168c-228.606548,36.890659 -684.005308,36.890659 -894.468479,0c-156.033041,-26.35047 -156.033041,-26.35047 -246.749925,14.053584c-48.987118,24.593772 -244.935588,107.15858 -433.626707,186.209991c-188.691119,79.051411 -431.812369,182.696595 -542.486968,228.370744c-215.906185,91.348298 -293.922705,110.671976 -382.825252,89.5916zm1181.133834,-2160.738578c148.77569,-64.997827 232.235224,-224.857348 190.505457,-361.879794c-47.17278,-149.319333 -159.661716,-240.66763 -306.623069,-242.424328c-297.551381,-5.270094 -457.213097,335.529324 -250.378601,534.036201c107.045923,105.401882 234.049562,129.995654 366.496213,70.267921zm2149.990158,-28.107168c165.104729,-110.671976 192.319795,-333.772626 58.058806,-470.795072c-72.573507,-73.781317 -136.075326,-100.131788 -243.12125,-100.131788c-299.365718,0 -444.512733,344.312814 -226.792211,541.062993c110.674599,100.131788 288.479692,112.428674 411.854655,29.863867zm-1397.040018,-787.000718c56.244468,-28.107168 67.130494,-75.538015 25.400728,-119.455466c-25.400728,-28.107168 -56.244468,-33.377263 -168.733405,-33.377263c-150.590028,0 -219.53486,28.107168 -219.53486,87.834902c0,56.214337 70.75917,87.834902 199.577145,87.834902c65.316157,0 137.889664,-10.540188 163.290392,-22.837074zm631.389515,-17.56698c30.843741,-22.837074 27.215065,-73.781317 -7.257351,-107.15858c-32.658078,-31.620565 -246.749925,-38.647357 -321.13777,-12.296886c-54.430131,19.323678 -72.573507,63.241129 -48.987118,107.15858c27.215065,50.944243 315.694757,59.727733 377.382239,12.296886z"/>
  </g>
 </g>
</svg>