<svg version="1.0" xmlns="http://www.w3.org/2000/svg" width="800.000000" height="800.000000" viewBox="0 0 800.000000 800.000000" preserveAspectRatio="xMidYMid meet">
  <metadata>
    <rdf:RDF xmlns:rdf="http://www.w3.org/1999/02/22-rdf-syntax-ns#" xmlns:rdfs="http://www.w3.org/2000/01/rdf-schema#" xmlns:dc="http://purl.org/dc/elements/1.1/">
      <rdf:Description dc:format="image/svg+xml" dc:Label="1" dc:ContentProducer="001191330110MACRLGPT8B00000" dc:ProduceID="388518430" dc:ReservedCode1="ZehLvZ0xnniL7gvHL9/eDh7lO7P2+6QpiNcaRv7aDrA=" dc:ContentPropagator="001191330110MACRLGPT8B00000" dc:PropagateID="388518430" dc:ReservedCode2="ZehLvZ0xnniL7gvHL9/eDh7lO7P2+6QpiNcaRv7aDrA="/>
    </rdf:RDF>
  </metadata>
  <g transform="translate(-118.992024,991.836805) scale(0.140541,-0.140541)" fill="#ffffff" stroke="none">
    <path d="M2564 5701 c-53 -13 -95 -51 -119 -105 -19 -43 -26 -94 -45 -336 -42 -534 -55 -648 -84 -722 -67 -176 -89 -437 -51 -618 33 -161 110 -336 207 -471 30 -42 58 -81 61 -86 4 -7 -16 -24 -46 -41 -183 -103 -237 -347 -107 -481 85 -87 206 -124 410 -124 211 0 342 41 424 135 l42 48 76 -19 c115 -30 216 -41 361 -41 143 0 214 9 349 41 l88 21 43 -44 c98 -101 216 -140 432 -141 245 -1 393 56 458 177 18 33 22 58 22 131 0 79 -4 97 -27 142 -32 61 -81 110 -152 155 -28 17 -52 33 -54 34 -2 1 24 40 57 86 234 327 291 701 166 1087 -20 60 -32 116 -29 125 8 21 -45 858 -58 909 -10 42 -58 101 -99 123 -70 36 -157 6 -772 -262 l-78 -34 -97 16 c-126 21 -377 21 -493 0 -86 -15 -86 -15 -136 8 -27 14 -135 61 -239 106 -104 45 -238 104 -299 130 -119 52 -162 63 -211 51z m651 -1230 c82 -37 128 -128 105 -206 -26 -85 -88 -137 -169 -138 -164 -3 -252 191 -138 304 59 60 129 74 202 40z m1185 -16 c91 -63 106 -190 32 -268 -40 -42 -75 -57 -134 -57 -165 0 -245 196 -125 308 61 57 159 64 227 17z m-770 -448 c31 -16 37 -43 14 -68 -14 -16 -31 -19 -93 -19 -83 0 -121 16 -121 50 0 32 39 50 110 50 36 0 76 -6 90 -13z m348 -10 c17 -13 15 -42 -4 -61 -18 -18 -136 -22 -177 -7 -30 11 -40 36 -27 61 15 29 174 34 208 7z"/>
  </g>
</svg>
